<svg xmlns="http://www.w3.org/2000/svg" viewBox="0 0 32 32">
  <defs><linearGradient id="g" x1="0%" y1="0%" x2="100%" y2="100%"><stop offset="0%" stop-color="#6D5CE0"/><stop offset="100%" stop-color="#8B7BF0"/></linearGradient></defs>
  <rect width="32" height="32" rx="8" fill="url(#g)"/>
  <path d="M27 5H5C3.3 5 2 6.3 2 8v13c0 1.7 1.3 3 3 3h5l4.3 4.3c.5.5 1.4.5 1.9 0L21 24h6c1.7 0 3-1.3 3-3V8c0-1.7-1.3-3-3-3z" fill="white" opacity="0.12" stroke="white" stroke-width="1.5"/>
  <path d="M16 10l.9 2.7 2.6.9-2.6.9L16 17l-.9-2.5-2.6-.9 2.6-.9L16 10z" fill="white"/>
  <circle cx="10" cy="14.5" r="1.3" fill="white" opacity="0.6"/>
  <circle cx="22" cy="14.5" r="1.3" fill="white" opacity="0.6"/>
</svg>
